<?xml version="1.0" encoding="UTF-8" standalone="no"?>
<svg width="240" height="80" viewBox="0 0 240 80" fill="none" xmlns="http://www.w3.org/2000/svg">
  <!-- Main container with black background -->
  <rect width="240" height="80" fill="black"/>
  
  <!-- Main logo container with white border -->
  <rect x="40" y="10" width="160" height="50" fill="none" stroke="white" stroke-width="2"/>
  
  <!-- F square - black background with white letter -->
  <rect x="45" y="15" width="40" height="40" fill="black" stroke="white" stroke-width="1"/>
  <path d="M60 25H75V30H65V35H73V40H65V50H60V25Z" fill="white"/>
  
  <!-- 2 square - white background with black number -->
  <rect x="90" y="15" width="40" height="40" fill="white"/>
  <path d="M105 25C105 25 115 25 117 25C119 25 120 26 120 28C120 30 120 31 118 33C116 35 110 43 110 43V44H120V50H105V45C105 45 114 35 115 33C116 31 115 30 113 30H105V25Z" fill="black"/>
  
  <!-- 4 square - black background with white number -->
  <rect x="135" y="15" width="40" height="40" fill="black" stroke="white" stroke-width="1"/>
  <path d="M153 25V35H150V25H145V35H142L142 30H137V35H145V50H150V35H160V25H153Z" fill="white"/>
  
  <!-- EDITABILE text below with decorative lines -->
  <line x1="70" y1="65" x2="110" y2="65" stroke="white" stroke-width="1"/>
  
  <!-- EDITABILE text using path instead of text element -->
  <path d="M111 64H114V68H111V64Z" fill="white"/> <!-- E -->
  <path d="M116 64H119V68H116V64Z" fill="white"/> <!-- D -->
  <path d="M121 64H122V68H121V64Z" fill="white"/> <!-- I -->
  <path d="M124 64H127V68H124V64Z" fill="white"/> <!-- T -->
  <path d="M129 64H132V68H129V64Z" fill="white"/> <!-- A -->
  <path d="M134 64H137V68H134V64Z" fill="white"/> <!-- B -->
  <path d="M139 64H140V68H139V64Z" fill="white"/> <!-- I -->
  <path d="M142 64H145V68H142V64Z" fill="white"/> <!-- L -->
  <path d="M147 64H150V68H147V64Z" fill="white"/> <!-- E -->
  
  <line x1="130" y1="65" x2="170" y2="65" stroke="white" stroke-width="1"/>
</svg>