<?xml version="1.0" encoding="UTF-8" standalone="no"?>
<svg width="180" height="36" viewBox="0 0 180 36" fill="none" xmlns="http://www.w3.org/2000/svg">
  <!-- F24Editabile - Ultra Minimalist Version -->
  <path d="M2 6H14V9H6V16H12V19H6V30H2V6Z" fill="black"/>
  <path d="M16 30V6H20.5L23 17H24L26.5 6H31V30H27V15H26L23.5 30H20.5L18 15H17V30H16Z" fill="black"/>
  <path d="M32 6H36V30H32V6Z" fill="black"/>
  
  <!-- Thin vertical line separator -->
  <line x1="40" y1="6" x2="40" y2="30" stroke="black" stroke-width="0.5"/>
  
  <!-- Editabile in a more minimalist style -->
  <path d="M45 30V6H58V9H49V16H56V19H49V27H58V30H45Z" fill="black"/>
  <path d="M60 18C60 11 64 5 71 5C78 5 82 11 82 18C82 25 78 31 71 31C64 31 60 25 60 18ZM64 18C64 23 67 27 71 27C75 27 78 23 78 18C78 13 75 9 71 9C67 9 64 13 64 18Z" fill="black"/>
  <path d="M85 6H89V30H85V6Z" fill="black"/>
  <path d="M92 6H96V27H105V30H92V6Z" fill="black"/>
  <path d="M108 6H122V9H112V16H120V19H112V27H122V30H108V6Z" fill="black"/>
  <path d="M125 6H139V9H129V16H137V19H129V27H139V30H125V6Z" fill="black"/>
  <path d="M142 30V6H146V15H154V6H158V30H154V18H146V30H142Z" fill="black"/>
  <path d="M160 6H174V9H164V16H172V19H164V27H174V30H160V6Z" fill="black"/>
</svg>