<?xml version="1.0" encoding="UTF-8" standalone="no"?>
<svg width="240" height="80" viewBox="0 0 240 80" fill="none" xmlns="http://www.w3.org/2000/svg">
  <!-- Main logo container with white background and thin border -->
  <rect x="40" y="10" width="160" height="50" fill="white" stroke="white" stroke-width="2"/>
  
  <!-- F square - black background with white letter -->
  <rect x="45" y="15" width="40" height="40" fill="black"/>
  <path d="M60 25H75V30H65V35H73V40H65V50H60V25Z" fill="white"/>
  
  <!-- 2 square - white background with black number -->
  <rect x="90" y="15" width="40" height="40" fill="white" stroke="black" stroke-width="1"/>
  <path d="M105 25C105 25 115 25 117 25C119 25 120 26 120 28C120 30 120 31 118 33C116 35 110 43 110 43V44H120V50H105V45C105 45 114 35 115 33C116 31 115 30 113 30H105V25Z" fill="black"/>
  
  <!-- 4 square - black background with white number -->
  <rect x="135" y="15" width="40" height="40" fill="black"/>
  <path d="M153 25V35H150V25H145V35H142L142 30H137V35H145V50H150V35H160V25H153Z" fill="white"/>
  
  <!-- EDITABILE text below with decorative lines -->
  <line x1="70" y1="65" x2="110" y2="65" stroke="white" stroke-width="1"/>
  <text x="120" y="68" font-family="Arial, sans-serif" font-weight="bold" font-size="14" fill="white" text-anchor="middle">EDITABILE</text>
  <line x1="130" y1="65" x2="170" y2="65" stroke="white" stroke-width="1"/>
</svg>