<?xml version="1.0" encoding="UTF-8" standalone="no"?>
<svg width="220" height="36" viewBox="0 0 220 36" fill="none" xmlns="http://www.w3.org/2000/svg">
  <!-- F24 in a stylish, bold font -->
  <path d="M10 5H26V10H16V15H24V20H16V32H10V5Z" fill="black"/>
  <path d="M28 32V5H34L38 20H39L43 5H49V32H43V17H42L38 32H33V17H32V32H28Z" fill="black"/>
  <path d="M52 5H70V10H58V15H68V20H58V27H70V32H52V5Z" fill="black"/>
  
  <!-- Thin elegant dot separating F24 and Editabile -->
  <circle cx="75" cy="18" r="2" fill="black"/>
  
  <!-- Editabile in thin, elegant strokes -->
  <path d="M82 32V5H102V10H88V15H100V20H88V27H102V32H82Z" fill="black"/>
  <path d="M105 18C105 10 110 4 118 4C126 4 131 10 131 18C131 26 126 32 118 32C110 32 105 26 105 18ZM111 18C111 23 114 26 118 26C122 26 125 23 125 18C125 13 122 10 118 10C114 10 111 13 111 18Z" fill="black"/>
  <path d="M134 5H140V32H134V5Z" fill="black"/>
  <path d="M143 5H149V27H161V32H143V5Z" fill="black"/>
  <path d="M164 5H184V10H170V15H182V20H170V27H184V32H164V5Z" fill="black"/>
  <path d="M187 32V5H193V15H205V5H211V32H205V20H193V32H187Z" fill="black"/>
  <path d="M214 5H220V32H214V5Z" fill="black"/>
</svg>