<?xml version="1.0" encoding="UTF-8" standalone="no"?>
<svg width="240" height="80" viewBox="0 0 240 80" fill="none" xmlns="http://www.w3.org/2000/svg">
  <!-- Background -->
  <rect width="240" height="80" fill="black"/>
  
  <!-- Main rectangle with white border -->
  <rect x="40" y="15" width="160" height="40" stroke="white" stroke-width="1.5" fill="none"/>
  
  <!-- F box (black with white F) -->
  <rect x="45" y="17.5" width="45" height="35" fill="black" stroke="white" stroke-width="0.5"/>
  <path d="M60 25H77V31H65V34H75V40H65V50H60V25Z" fill="white"/>
  
  <!-- 2 box (white with black 2) -->
  <rect x="95" y="17.5" width="45" height="35" fill="white"/>
  <path d="M108 25H126C128 25 130 27 130 29C130 31 129 33 127 35C125 37 118 44 118 44V45H130V50H108V45C108 45 120 34 122 32C124 30 123 30 120 30H108V25Z" fill="black"/>
  
  <!-- 4 box (black with white 4) -->
  <rect x="145" y="17.5" width="45" height="35" fill="black" stroke="white" stroke-width="0.5"/>
  <path d="M160 25L160 35H155V25H150V35H146L146 33H141V38H150V50H155V38H170V25H160Z" fill="white"/>
  
  <!-- EDITABILE word with lines -->
  <line x1="75" y1="65" x2="100" y2="65" stroke="white" stroke-width="1"/>
  
  <!-- EDITABILE text as vector paths -->
  <path d="M104.5 60H114V62H106V64H113V66H106V68H114V70H104.5V60Z" fill="white"/> <!-- E -->
  <path d="M116 60H120.5C123 60 125 62 125 65C125 68 123 70 120.5 70H116V60ZM118.5 62.5V67.5H120C121.5 67.5 122.5 66.5 122.5 65C122.5 63.5 121.5 62.5 120 62.5H118.5Z" fill="white"/> <!-- D -->
  <path d="M127 60H129.5V70H127V60Z" fill="white"/> <!-- I -->
  <path d="M131.5 60H139V62.5H136.5V70H134V62.5H131.5V60Z" fill="white"/> <!-- T -->
  <path d="M141 60H148L149 62.5L150 65L151 62.5L152 60H159V70H156.5V63L155 67L153.5 70H146.5L145 67L143.5 63V70H141V60Z" fill="white"/> <!-- A -->
  <path d="M161 60H168C170 60 171.5 61 171.5 62.5C171.5 63.5 170.5 64.5 169 65C170.5 65.5 172 66.5 172 68C172 69.5 170.5 70 168.5 70H161V60ZM163.5 62.5V64H167C167.5 64 168 63.5 168 63C168 62.5 167.5 62.5 167 62.5H163.5ZM163.5 66V68H167.5C168 68 168.5 67.5 168.5 67C168.5 66.5 168 66 167.5 66H163.5Z" fill="white"/> <!-- B -->
  <path d="M174 60H176.5V70H174V60Z" fill="white"/> <!-- I -->
  <path d="M178.5 60H181V67.5H188V70H178.5V60Z" fill="white"/> <!-- L -->
  <path d="M190 60H199.5V62H192V64H198.5V66H192V68H199.5V70H190V60Z" fill="white"/> <!-- E -->
  
  <line x1="140" y1="65" x2="165" y2="65" stroke="white" stroke-width="1"/>
</svg>